<svg width="82" height="82" fill="none" xmlns="http://www.w3.org/2000/svg"><path d="M40.841 78.682c20.9 0 37.841-16.942 37.841-37.84C78.682 19.941 61.74 3 40.842 3 19.941 3 3 19.942 3 40.841c0 20.9 16.942 37.841 37.841 37.841z" fill="#fff" stroke="#34D6CD" stroke-width="5" stroke-linecap="round"/><path d="M25.705 29.677V29.3v.378z" fill="#fff"/><path d="M25.705 29.677V29.3" stroke="#34D6CD" stroke-width="5" stroke-linecap="round"/><path d="M55.977 29.677V29.3v.378z" fill="#fff"/><path d="M55.977 29.677V29.3" stroke="#34D6CD" stroke-width="5" stroke-linecap="round"/><path d="M55.978 48.41c-1.892 5.676-6.774 11.353-15.136 11.353-8.363 0-13.245-5.677-15.137-11.353" fill="#fff"/><path d="M55.978 48.41c-1.892 5.676-6.774 11.353-15.136 11.353-8.363 0-13.245-5.677-15.137-11.353" stroke="#34D6CD" stroke-width="5" stroke-linecap="round" stroke-linejoin="round"/></svg>