<svg width="60" height="60" fill="none" xmlns="http://www.w3.org/2000/svg"><path d="M59.063 10.75c0-5.41-4.402-9.813-9.813-9.813a9.757 9.757 0 00-3.867.794l-4.408 1.89-.038-.033c-2.04-1.75-4.658-2.732-7.325-2.68h-7.22a11.041 11.041 0 00-7.33 2.68l-.038.032-4.408-1.889A9.748 9.748 0 0010.75.937C5.34.937.937 5.34.937 10.75c0 3.413 1.224 6.717 3.443 9.306l2.388 2.786a6.51 6.51 0 00-.205 1.533 6.57 6.57 0 006.562 6.562 8.993 8.993 0 005.595-1.962l1.38-1.103a3.88 3.88 0 001-1.23c.3 1.004.462 2.05.462 3.114v29.306h16.875V29.756c0-1.064.164-2.11.463-3.113.246.466.576.89 1.002 1.229l1.379 1.103a8.988 8.988 0 005.594 1.962 6.57 6.57 0 006.563-6.562c0-.519-.084-1.03-.206-1.533l2.387-2.786a14.303 14.303 0 003.444-9.306zm-53.26 8.086a12.43 12.43 0 01-2.99-8.086c0-4.377 3.56-7.938 7.937-7.938 1.081 0 2.133.216 3.129.643l3.742 1.604c-.41.495-.783 1.016-1.101 1.569l-3.38-1.45a6.016 6.016 0 00-2.39-.49 6.07 6.07 0 00-6.063 6.062c0 2.517.902 4.956 2.54 6.865l1.564 1.826c-.314.28-.608.583-.863.924l-.054.073c-.111.148-.198.312-.295.469l-1.776-2.07zm4.571-.43l-1.723-2.01a8.678 8.678 0 01-2.088-5.646A4.193 4.193 0 0112.4 6.9l3.326 1.426a11.332 11.332 0 00-.728 3.958v.148c0 2.215.49 4.38 1.399 6.36a6.376 6.376 0 00-3.367-.98c-.926 0-1.83.213-2.657.594zm8.552 8.001l-1.379 1.104a7.104 7.104 0 01-4.422 1.551 4.693 4.693 0 01-4.688-4.687c0-1.008.333-2.007.938-2.813l.056-.075a4.522 4.522 0 013.6-1.8 4.5 4.5 0 012.88 1.043l3.046 2.539c.465.386.73.953.73 1.556 0 .62-.277 1.196-.76 1.582zm4.512 8.117c.288.315.599.612.945.872l.93.698v21.093h-1.875V34.524zm2.285-18.502l-3.884-2.59a2.72 2.72 0 01-1.214-2.268 2.73 2.73 0 012.726-2.727h.159c.42 0 .842.1 1.22.288l1.299.65c2.453 1.227 5.489 1.227 7.943 0l1.3-.65a2.731 2.731 0 011.218-.288h.159a2.73 2.73 0 012.726 2.727 2.72 2.72 0 01-1.214 2.268l-3.884 2.59a7.485 7.485 0 00-3.34 6.24v11.957c0 1.131.807 2.078 1.875 2.295v3.798h-5.624v-3.797a2.347 2.347 0 001.875-2.296V22.262a7.485 7.485 0 00-3.34-6.24zm7.09 35.54h-5.626v-3.75h5.625v3.75zm0-5.625h-5.626v-3.75h5.625v3.75zm-5.626 7.5h5.625v3.75h-5.624v-3.75zm9.375 3.75h-1.874V36.094l.929-.698c.346-.26.656-.557.946-.872v22.663zm0-27.43c0 1.62-.773 3.167-2.07 4.14l-.928.697c-.29.215-.752-.016-.752-.375V22.262c0-1.885.937-3.634 2.506-4.68l3.884-2.59a4.592 4.592 0 002.048-3.828 4.607 4.607 0 00-4.601-4.602h-.159c-.71 0-1.423.168-2.058.486l-1.299.65c-1.935.967-4.33.967-6.266 0l-1.3-.65a4.622 4.622 0 00-2.057-.486h-.159a4.607 4.607 0 00-4.601 4.602 4.59 4.59 0 002.05 3.828l3.883 2.59a5.616 5.616 0 012.505 4.68v11.957c0 .359-.467.587-.75.375l-.93-.699a5.196 5.196 0 01-2.07-4.139c0-3.092-1.122-6.077-3.163-8.41l-.092-.107a13.368 13.368 0 01-3.309-8.806v-.148A9.459 9.459 0 0120.177 5.1l.106-.091c1.695-1.454 3.847-2.227 6.103-2.228h7.235c2.255.02 4.4.774 6.095 2.228l.106.09a9.459 9.459 0 013.303 7.185v.148c0 3.24-1.175 6.367-3.316 8.814l-.09.104a12.769 12.769 0 00-3.157 8.405zM46.97 17.811c-1.197 0-2.36.354-3.368.982.91-1.981 1.4-4.146 1.4-6.361v-.15c0-1.37-.26-2.704-.728-3.957L47.6 6.9a4.193 4.193 0 015.839 3.85 8.67 8.67 0 01-2.09 5.644l-1.722 2.01a6.367 6.367 0 00-2.657-.593zm-5.895 8.595a2.014 2.014 0 01-.761-1.582c0-.603.265-1.17.729-1.556l3.046-2.54a4.51 4.51 0 012.88-1.042c1.41 0 2.755.673 3.599 1.797l.058.078c.605.806.938 1.805.938 2.813 0 .231-.036.453-.069.675a2.785 2.785 0 00-1.806-.675 2.81 2.81 0 00-.956.173c.004-.058.018-.114.018-.173a2.816 2.816 0 00-2.813-2.813 2.816 2.816 0 00-2.812 2.813c0 .998.527 1.872 1.313 2.37a2.79 2.79 0 00-.376 1.38c0 .117.021.229.035.342a7.033 7.033 0 01-1.645-.956l-1.378-1.104zm4.864 1.718a.938.938 0 011.874 0 .938.938 0 01-1.874 0zM45 24.375a.938.938 0 011.875 0 .938.938 0 01-1.875 0zm4.686 3.727a2.782 2.782 0 00-.567-1.654.934.934 0 01.569-.198c.509 0 .92.409.932.914-.266.356-.58.67-.934.938zm2.734-7.195c-.097-.157-.183-.32-.295-.469l-.056-.076a6.36 6.36 0 00-.86-.921l1.563-1.825a10.552 10.552 0 002.54-6.865 6.07 6.07 0 00-6.062-6.064c-.826 0-1.63.165-2.39.49l-3.38 1.45a11.295 11.295 0 00-1.101-1.57l3.742-1.603a7.897 7.897 0 013.129-.642c4.377 0 7.938 3.56 7.938 7.938 0 2.965-1.063 5.837-2.992 8.086l-1.776 2.071z" fill="#fff"/></svg>