<svg width="82" height="82" viewBox="0 0 82 82" fill="none" xmlns="http://www.w3.org/2000/svg">
<path d="M40.8411 78.6822C61.7401 78.6822 78.6822 61.7401 78.6822 40.8411C78.6822 19.942 61.7401 3 40.8411 3C19.942 3 3 19.942 3 40.8411C3 61.7401 19.942 78.6822 40.8411 78.6822Z" fill="white" stroke="#34D6CD" stroke-width="5" stroke-linecap="round"/>
<path d="M25.7051 29.6772V29.2988V29.6772Z" fill="white"/>
<path d="M25.7051 29.6772V29.2988" stroke="#34D6CD" stroke-width="5" stroke-linecap="round"/>
<path d="M55.9766 29.6772V29.2988V29.6772Z" fill="white"/>
<path d="M55.9766 29.6772V29.2988" stroke="#34D6CD" stroke-width="5" stroke-linecap="round"/>
<path d="M55.9779 48.4102C54.0859 54.0863 49.2044 59.7625 40.8415 59.7625C32.4786 59.7625 27.5971 54.0863 25.7051 48.4102" fill="white"/>
<path d="M55.9779 48.4102C54.0859 54.0863 49.2044 59.7625 40.8415 59.7625C32.4786 59.7625 27.5971 54.0863 25.7051 48.4102" stroke="#34D6CD" stroke-width="5" stroke-linecap="round" stroke-linejoin="round"/>
</svg>
