<svg width="82" height="82" viewBox="0 0 82 82" fill="none" xmlns="http://www.w3.org/2000/svg">
<path d="M40.8411 78.6822C61.7401 78.6822 78.6822 61.7401 78.6822 40.8411C78.6822 19.942 61.7401 3 40.8411 3C19.942 3 3 19.942 3 40.8411C3 61.7401 19.942 78.6822 40.8411 78.6822Z" fill="white" stroke="#EE1568" stroke-width="5" stroke-linecap="round"/>
<path d="M25.7051 29.6777V29.2993V29.6777Z" fill="white"/>
<path d="M25.7051 29.6777V29.2993" stroke="#EE1568" stroke-width="5" stroke-linecap="round"/>
<path d="M55.9766 29.6777V29.2993V29.6777Z" fill="white"/>
<path d="M55.9766 29.6777V29.2993" stroke="#EE1568" stroke-width="5" stroke-linecap="round"/>
<path d="M55.9779 55.9773C54.0859 50.3012 49.2044 44.625 40.8415 44.625C32.4786 44.625 27.5971 50.3012 25.7051 55.9773" fill="white"/>
<path d="M55.9779 55.9773C54.0859 50.3012 49.2044 44.625 40.8415 44.625C32.4786 44.625 27.5971 50.3012 25.7051 55.9773" stroke="#EE1568" stroke-width="5" stroke-linecap="round" stroke-linejoin="round"/>
</svg>
