<svg width="60" height="60" viewBox="0 0 60 60" fill="none" xmlns="http://www.w3.org/2000/svg">
<path d="M59.0625 10.7501C59.0625 5.33982 54.6609 0.937314 49.2497 0.937314C47.9128 0.937314 46.6125 1.2045 45.3834 1.73138L40.9753 3.62044L40.9369 3.58763C38.8969 1.83825 36.2794 0.855752 33.6122 0.908252H26.3925C23.6681 0.884814 21.0994 1.83825 19.0613 3.58763L19.0238 3.62044L14.6156 1.73138C13.3875 1.2045 12.0872 0.937314 10.7503 0.937314C5.33906 0.937314 0.9375 5.33982 0.9375 10.7501C0.9375 14.1626 2.16094 17.4673 4.38 20.0558L6.76781 22.842C6.64594 23.3445 6.5625 23.8564 6.5625 24.3748C6.5625 27.9936 9.50719 30.9373 13.125 30.9373C15.15 30.9373 17.1366 30.2408 18.72 28.9751L20.0991 27.8717C20.5237 27.5314 20.8547 27.1086 21.1003 26.6426C21.3994 27.6458 21.5625 28.692 21.5625 29.7561V59.0623H38.4375V29.7561C38.4375 28.692 38.6006 27.6458 38.8997 26.6426C39.1463 27.1086 39.4762 27.5323 39.9019 27.8717L41.2809 28.9751C42.8634 30.2408 44.85 30.9373 46.875 30.9373C50.4928 30.9373 53.4375 27.9936 53.4375 24.3748C53.4375 23.8564 53.3541 23.3445 53.2322 22.842L55.6191 20.0558C57.8391 17.4673 59.0625 14.1626 59.0625 10.7501ZM5.80312 18.8361C3.87469 16.587 2.8125 13.7154 2.8125 10.7501C2.8125 6.37294 6.37313 2.81231 10.7503 2.81231C11.8313 2.81231 12.8831 3.02794 13.8787 3.4545L17.6213 5.05856C17.2106 5.55356 16.8384 6.07481 16.5197 6.62794L13.1391 5.17856C12.3797 4.85231 11.5763 4.68731 10.7503 4.68731C7.40719 4.68731 4.6875 7.407 4.6875 10.7501C4.6875 13.2673 5.58938 15.7058 7.22719 17.6154L8.79094 19.4408C8.47687 19.7201 8.18344 20.0239 7.92844 20.3651L7.87406 20.4383C7.7625 20.5864 7.67625 20.7504 7.57875 20.907L5.80312 18.8361ZM10.3744 18.4058L8.65125 16.3958C7.30406 14.8245 6.5625 12.8201 6.5625 10.7501C6.5625 8.44107 8.44125 6.56231 10.7503 6.56231C11.3203 6.56231 11.8762 6.67669 12.4012 6.90075L15.7266 8.32575C15.2597 9.57919 14.9991 10.9142 14.9991 12.2839V12.432C14.9991 14.6473 15.4894 16.8129 16.3978 18.792C15.3909 18.1648 14.2284 17.8123 13.0312 17.8123C12.105 17.8123 11.2013 18.0251 10.3744 18.4058ZM18.9263 26.4073L17.5472 27.5108C16.2975 28.5111 14.7262 29.0623 13.125 29.0623C10.5403 29.0623 8.4375 26.9595 8.4375 24.3748C8.4375 23.367 8.77031 22.3676 9.375 21.5623L9.43125 21.4873C10.2769 20.3604 11.6222 19.6873 13.0312 19.6873C14.0822 19.6873 15.105 20.0576 15.9113 20.7298L18.9572 23.2686C19.4222 23.6548 19.6875 24.222 19.6875 24.8248C19.6875 25.4445 19.41 26.0211 18.9263 26.4073ZM23.4375 34.5242C23.7262 34.8392 24.0366 35.1364 24.3825 35.3961L25.3125 36.0936V57.1873H23.4375V34.5242ZM25.7231 16.0217L21.8391 13.4323C21.0788 12.9261 20.625 12.0776 20.625 11.1636C20.625 9.66075 21.8484 8.43732 23.3513 8.43732H23.5097C23.9306 8.43732 24.3525 8.53669 24.7294 8.72513L26.0287 9.37482C28.4822 10.602 31.5178 10.602 33.9722 9.37482L35.2716 8.72513C35.6466 8.53669 36.0694 8.43732 36.4903 8.43732H36.6488C38.1516 8.43732 39.375 9.66075 39.375 11.1636C39.375 12.0776 38.9213 12.9251 38.1609 13.4323L34.2769 16.0217C32.1863 17.4158 30.9375 19.7483 30.9375 22.2617V34.2186C30.9375 35.3501 31.7437 36.297 32.8125 36.5145V40.3123H27.1875V36.5145C28.2563 36.297 29.0625 35.3501 29.0625 34.2186V22.2617C29.0625 19.7483 27.8137 17.4158 25.7231 16.0217ZM32.8125 51.5623H27.1875V47.8123H32.8125V51.5623ZM32.8125 45.9373H27.1875V42.1873H32.8125V45.9373ZM27.1875 53.4373H32.8125V57.1873H27.1875V53.4373ZM36.5625 57.1873H34.6875V36.0945C34.6875 36.0945 34.6884 36.0945 34.6884 36.0936L35.6166 35.3961C35.9634 35.1364 36.2728 34.8392 36.5625 34.5242V57.1873ZM36.5625 29.7561C36.5625 31.377 35.7891 32.9239 34.4916 33.897L33.5644 34.5936C33.2737 34.8092 32.8125 34.5776 32.8125 34.2186V22.2617C32.8125 20.3773 33.7491 18.6279 35.3175 17.5817L39.2016 14.9923C40.4841 14.1373 41.25 12.7058 41.25 11.1636C41.25 8.62669 39.1856 6.56231 36.6488 6.56231H36.4903C35.7797 6.56231 35.0672 6.73013 34.4325 7.04794L33.1331 7.69763C31.1981 8.66513 28.8028 8.66513 26.8669 7.69763L25.5675 7.04794C24.9328 6.73013 24.2203 6.56231 23.5097 6.56231H23.3513C20.8144 6.56231 18.75 8.62669 18.75 11.1636C18.75 12.7058 19.5159 14.1373 20.7994 14.9923L24.6834 17.5817C26.2509 18.6279 27.1875 20.3773 27.1875 22.2617V34.2186C27.1875 34.5776 26.7206 34.8064 26.4375 34.5936L25.5075 33.8951C24.2109 32.9239 23.4375 31.3761 23.4375 29.7561C23.4375 26.6642 22.3162 23.6792 20.2753 21.3458L20.1825 21.2389C18.0487 18.8004 16.8741 15.6729 16.8741 12.4329V12.2848C16.875 9.51919 18.0787 6.90075 20.1769 5.10075L20.2828 5.00981C21.9778 3.55575 24.1303 2.78325 26.3859 2.78231H33.6206C35.8763 2.80294 38.0212 3.55575 39.7162 5.00981L39.8222 5.10075C41.9203 6.90075 43.1241 9.51919 43.125 12.2848V12.4329C43.125 15.6739 41.9503 18.8004 39.8091 21.2473L39.7181 21.3514C37.6838 23.6792 36.5625 26.6633 36.5625 29.7561ZM46.9688 17.8123C45.7716 17.8123 44.6091 18.1658 43.6012 18.7939C44.5106 16.8129 45.0009 14.6483 45.0009 12.4329V12.2839C45.0009 10.9133 44.7412 9.57919 44.2734 8.32575L47.5988 6.90075C48.1237 6.67669 48.6797 6.56231 49.2497 6.56231C51.5588 6.56231 53.4375 8.44107 53.4375 10.7501C53.4375 12.8201 52.6959 14.8245 51.3478 16.3948L49.6256 18.4048C48.7997 18.0251 47.895 17.8123 46.9688 17.8123ZM41.0737 26.4073C40.59 26.0211 40.3125 25.4445 40.3125 24.8248C40.3125 24.222 40.5778 23.6548 41.0419 23.2686L44.0878 20.7298C44.895 20.0576 45.9178 19.6873 46.9688 19.6873C48.3778 19.6873 49.7231 20.3604 50.5669 21.4845L50.625 21.5623C51.2297 22.3676 51.5625 23.367 51.5625 24.3748C51.5625 24.6064 51.5269 24.8276 51.4941 25.0498C51.0037 24.6345 50.3784 24.3748 49.6875 24.3748C49.3547 24.3748 49.0341 24.4395 48.7322 24.5483C48.7359 24.4901 48.75 24.4339 48.75 24.3748C48.75 22.8242 47.4881 21.5623 45.9375 21.5623C44.3869 21.5623 43.125 22.8242 43.125 24.3748C43.125 25.3733 43.6519 26.247 44.4384 26.7458C44.2059 27.1554 44.0625 27.6214 44.0625 28.1248C44.0625 28.242 44.0831 28.3536 44.0972 28.467C43.5131 28.2176 42.9525 27.9111 42.4519 27.5108L41.0737 26.4073ZM45.9375 28.1248C45.9375 27.6083 46.3575 27.1873 46.875 27.1873C47.3925 27.1873 47.8125 27.6083 47.8125 28.1248C47.8125 28.6414 47.3925 29.0623 46.875 29.0623C46.3575 29.0623 45.9375 28.6414 45.9375 28.1248ZM45 24.3748C45 23.8583 45.42 23.4373 45.9375 23.4373C46.455 23.4373 46.875 23.8583 46.875 24.3748C46.875 24.8914 46.455 25.3123 45.9375 25.3123C45.42 25.3123 45 24.8914 45 24.3748ZM49.6856 28.1023C49.6809 27.4798 49.4672 26.9117 49.1194 26.4476C49.2797 26.3248 49.4766 26.2498 49.6875 26.2498C50.1966 26.2498 50.6072 26.6586 50.6203 27.1639C50.3541 27.5201 50.04 27.8342 49.6856 28.1023ZM52.4203 20.907C52.3228 20.7504 52.2366 20.5864 52.125 20.4383L52.0688 20.3623C51.8138 20.0229 51.5213 19.7192 51.2091 19.4408L52.7719 17.6164C54.4106 15.7058 55.3125 13.2673 55.3125 10.7511C55.3125 7.407 52.5928 4.68731 49.2497 4.68731C48.4238 4.68731 47.6203 4.85231 46.8609 5.17763L43.4803 6.627C43.1616 6.07388 42.7894 5.55263 42.3787 5.05763L46.1213 3.4545C47.1169 3.02794 48.1688 2.81231 49.2497 2.81231C53.6269 2.81231 57.1875 6.37294 57.1875 10.7501C57.1875 13.7154 56.1253 16.587 54.1959 18.8361L52.4203 20.907Z" fill="white"/>
</svg>
