<svg width="39" height="75" viewBox="0 0 39 75" fill="none" xmlns="http://www.w3.org/2000/svg">
<path d="M12.1018 54.8838V70.1445C12.0963 70.6084 12.187 71.0688 12.3686 71.4984C12.5501 71.9281 12.8189 72.3184 13.1592 72.6465C13.4994 72.9746 13.9042 73.2338 14.3497 73.4089C14.7953 73.584 15.2726 73.6715 15.7537 73.6662V73.6662C16.2348 73.6715 16.7122 73.584 17.1578 73.4089C17.6033 73.2338 18.0081 72.9746 18.3483 72.6465C18.6885 72.3184 18.9573 71.9281 19.1389 71.4984C19.3205 71.0688 19.4112 70.6084 19.4057 70.1445" stroke="white" stroke-width="2" stroke-miterlimit="10" stroke-linecap="round"/>
<path d="M19.4046 54.8838V70.1445C19.3987 70.6084 19.4958 71.0688 19.6904 71.4984C19.8849 71.9281 20.1729 72.3184 20.5374 72.6465C20.9019 72.9746 21.3356 73.2338 21.813 73.4089C22.2904 73.584 22.8019 73.6715 23.3173 73.6662C23.8328 73.6715 24.3443 73.584 24.8217 73.4089C25.299 73.2338 25.7327 72.9746 26.0972 72.6465C26.4618 72.3184 26.7498 71.9281 26.9443 71.4984C27.1389 71.0688 27.236 70.6084 27.2301 70.1445V54.8838" stroke="white" stroke-width="2" stroke-miterlimit="10" stroke-linecap="round"/>
<path d="M8.72304 40.3178C8.59339 40.7704 8.37391 41.1928 8.07748 41.5601C7.78105 41.9274 7.41366 42.2322 6.9969 42.4565C6.58015 42.6809 6.12242 42.8202 5.65063 42.8665C5.17884 42.9127 4.70251 42.8648 4.24961 42.7257C3.79362 42.597 3.36816 42.3791 2.99823 42.0848C2.62831 41.7905 2.3214 41.4258 2.09554 41.012C1.86969 40.5983 1.72945 40.1438 1.68307 39.6755C1.6367 39.2071 1.68512 38.7343 1.8255 38.2848L5.57335 25.742C5.98661 24.3631 6.83759 23.1537 7.99948 22.2939C9.16137 21.4341 10.572 20.97 12.0212 20.9707H27.3124C28.7617 20.9705 30.1722 21.4352 31.3339 22.2955C32.4955 23.1558 33.346 24.3658 33.7587 25.745L37.5065 38.2878C37.6469 38.7373 37.6953 39.2101 37.649 39.6785C37.6026 40.1468 37.4623 40.6012 37.2365 41.015C37.0106 41.4288 36.7037 41.7935 36.3338 42.0878C35.9639 42.3821 35.5384 42.6 35.0824 42.7287V42.7287C34.6299 42.8664 34.1542 42.9131 33.6833 42.866C33.2124 42.8189 32.7557 42.679 32.3399 42.4544C31.9242 42.2299 31.5577 41.9253 31.262 41.5584C30.9663 41.1915 30.7474 40.7697 30.618 40.3178" stroke="white" stroke-width="2" stroke-miterlimit="10" stroke-linecap="round"/>
<path d="M19.666 13.6665C22.9797 13.6665 25.666 10.9802 25.666 7.6665C25.666 4.3528 22.9797 1.6665 19.666 1.6665C16.3523 1.6665 13.666 4.3528 13.666 7.6665C13.666 10.9802 16.3523 13.6665 19.666 13.6665Z" stroke="white" stroke-width="2" stroke-miterlimit="10" stroke-linecap="round"/>
<path d="M12.4923 27.7534L5.31836 51.7534H34.014L26.8401 27.7534" stroke="white" stroke-width="2" stroke-linecap="round" stroke-linejoin="round"/>
</svg>
