<svg width="39" height="75" fill="none" xmlns="http://www.w3.org/2000/svg"><path d="M12.102 54.884v15.26c-.006.464.085.925.267 1.354.181.43.45.82.79 1.148.34.329.745.588 1.19.763.446.175.924.262 1.405.257v0a3.73 3.73 0 001.404-.257 3.61 3.61 0 001.19-.763c.34-.328.61-.718.79-1.148.182-.43.273-.89.268-1.354" stroke="#fff" stroke-width="2" stroke-miterlimit="10" stroke-linecap="round"/><path d="M19.405 54.884v15.26c-.006.464.09.925.285 1.354.195.43.483.82.847 1.148a3.92 3.92 0 001.276.763c.477.175.989.262 1.504.257a4.249 4.249 0 001.505-.257 3.925 3.925 0 001.275-.763 3.46 3.46 0 00.847-1.148c.195-.43.292-.89.286-1.354v-15.26M8.723 40.318a3.523 3.523 0 01-1.726 2.139 3.577 3.577 0 01-2.747.269 3.566 3.566 0 01-2.154-1.714 3.511 3.511 0 01-.27-2.727l3.747-12.543A6.675 6.675 0 018 22.294a6.756 6.756 0 014.022-1.323h15.291c1.45 0 2.86.464 4.022 1.325a6.675 6.675 0 012.425 3.449l3.748 12.543a3.507 3.507 0 01-.27 2.727 3.537 3.537 0 01-2.155 1.714v0a3.582 3.582 0 01-2.742-.275 3.552 3.552 0 01-1.722-2.136M19.666 13.666a6 6 0 100-12 6 6 0 000 12z" stroke="#fff" stroke-width="2" stroke-miterlimit="10" stroke-linecap="round"/><path d="M12.492 27.753l-7.174 24h28.696l-7.174-24" stroke="#fff" stroke-width="2" stroke-linecap="round" stroke-linejoin="round"/></svg>